<svg xmlns="http://www.w3.org/2000/svg" xmlns:xlink="http://www.w3.org/1999/xlink" contentStyleType="text/css" data-diagram-type="SEQUENCE" height="2103.125px" preserveAspectRatio="none" style="width:822px;height:2103px;" version="1.1" viewBox="0 0 822 2103" width="822.9167px" zoomAndPan="magnify"><defs><linearGradient id="g8ck7poce0i8a0" x1="50%" x2="50%" y1="0%" y2="100%"><stop offset="0%" stop-color="#33B2E2"/><stop offset="100%" stop-color="#009FDB"/></linearGradient><linearGradient id="g8ck7poce0i8a1" x1="50%" x2="50%" y1="0%" y2="100%"><stop offset="0%" stop-color="#3786BE"/><stop offset="100%" stop-color="#0568AE"/></linearGradient></defs><g><g><title>C.. Code</title><rect fill="#000000" fill-opacity="0.00000" height="1989.4531" width="8.3333" x="114.9597" y="57.2591"/><line style="stroke:#C2C2C2;stroke-width:1.0417;stroke-dasharray:5.2083,5.2083;" x1="118.6056" x2="118.6056" y1="57.2591" y2="2046.7122"/></g><g><title>FFI Boundary</title><rect fill="#000000" fill-opacity="0.00000" height="1989.4531" width="8.3333" x="323.995" y="57.2591"/><line style="stroke:#C2C2C2;stroke-width:1.0417;stroke-dasharray:5.2083,5.2083;" x1="327.6408" x2="327.6408" y1="57.2591" y2="2046.7122"/></g><g><title>Rust Code</title><rect fill="#000000" fill-opacity="0.00000" height="1989.4531" width="8.3333" x="545.8272" y="57.2591"/><line style="stroke:#C2C2C2;stroke-width:1.0417;stroke-dasharray:5.2083,5.2083;" x1="549.4731" x2="549.4731" y1="57.2591" y2="2046.7122"/></g><rect fill="url(#g8ck7poce0i8a0)" height="45.8008" rx="10.4167" ry="10.4167" style="stroke:#33B2E2;stroke-width:1.0417;" width="96.8994" x="70.1558" y="10.4167"/><text fill="#FFFFFF" font-family="'Verdana'" font-size="12.5" lengthAdjust="spacing" textLength="65.6494" x="85.7808" y="37.6444">C++ Code</text><rect fill="url(#g8ck7poce0i8a0)" height="45.8008" rx="10.4167" ry="10.4167" style="stroke:#33B2E2;stroke-width:1.0417;" width="113.4888" x="270.8964" y="10.4167"/><text fill="#FFFFFF" font-family="'Verdana'" font-size="12.5" lengthAdjust="spacing" textLength="82.2388" x="286.5214" y="37.6444">FFI Boundary</text><rect fill="url(#g8ck7poce0i8a0)" height="45.8008" rx="10.4167" ry="10.4167" style="stroke:#33B2E2;stroke-width:1.0417;" width="95.2454" x="501.8504" y="10.4167"/><text fill="#FFFFFF" font-family="'Verdana'" font-size="12.5" lengthAdjust="spacing" textLength="63.9954" x="517.4754" y="37.6444">Rust Code</text><rect fill="url(#g8ck7poce0i8a0)" height="45.8008" rx="10.4167" ry="10.4167" style="stroke:#33B2E2;stroke-width:1.0417;" width="96.8994" x="70.1558" y="2046.7122"/><text fill="#FFFFFF" font-family="'Verdana'" font-size="12.5" lengthAdjust="spacing" textLength="65.6494" x="85.7808" y="2073.94">C++ Code</text><rect fill="url(#g8ck7poce0i8a0)" height="45.8008" rx="10.4167" ry="10.4167" style="stroke:#33B2E2;stroke-width:1.0417;" width="113.4888" x="270.8964" y="2046.7122"/><text fill="#FFFFFF" font-family="'Verdana'" font-size="12.5" lengthAdjust="spacing" textLength="82.2388" x="286.5214" y="2073.94">FFI Boundary</text><rect fill="url(#g8ck7poce0i8a0)" height="45.8008" rx="10.4167" ry="10.4167" style="stroke:#33B2E2;stroke-width:1.0417;" width="95.2454" x="501.8504" y="2046.7122"/><text fill="#FFFFFF" font-family="'Verdana'" font-size="12.5" lengthAdjust="spacing" textLength="63.9954" x="517.4754" y="2073.94">Rust Code</text><line style="stroke:#009FDB;stroke-width:3.125;" x1="118.6056" x2="162.3556" y1="117.6107" y2="117.6107"/><line style="stroke:#009FDB;stroke-width:3.125;" x1="162.3556" x2="162.3556" y1="117.6107" y2="131.1523"/><line style="stroke:#009FDB;stroke-width:3.125;" x1="119.6472" x2="162.3556" y1="131.1523" y2="131.1523"/><polygon fill="#009FDB" points="130.0639,126.9857,119.6472,131.1523,130.0639,135.319,125.8972,131.1523" style="stroke:#009FDB;stroke-width:1.0417;"/><text fill="#5A5A5A" font-family="'Verdana'" font-size="12.5" font-weight="bold" lengthAdjust="spacing" textLength="8.6975" x="134.2306" y="96.9706">1</text><text fill="#5A5A5A" font-family="'Verdana'" font-size="12.5" lengthAdjust="spacing" textLength="148.2544" x="163.7614" y="89.6952">SomeFunction() returns</text><text fill="#5A5A5A" font-family="'Verdana'" font-size="12.5" lengthAdjust="spacing" textLength="39.1846" x="163.7614" y="104.246">Result</text><path d="M15.625,155.1107 L15.625,247.819 A10.4167,10.4167 0 0 0 26.0417,258.2357 L210.4167,258.2357 A10.4167,10.4167 0 0 0 220.8333,247.819 L220.8333,155.1107 L210.4167,144.694 L26.0417,144.694 A10.4167,10.4167 0 0 0 15.625,155.1107" fill="url(#g8ck7poce0i8a1)" style="stroke:#0568AE;stroke-width:1.0417;"/><path d="M210.4167,144.694 L210.4167,149.9023 A5.2083,5.2083 0 0 0 215.625,155.1107 L220.8333,155.1107 L210.4167,144.694" fill="url(#g8ck7poce0i8a1)" style="stroke:#0568AE;stroke-width:1.0417;"/><text fill="#FFFFFF" font-family="'Verdana'" font-size="12.5" lengthAdjust="spacing" textLength="139.5996" x="30.2083" y="169.8385">local variable created:</text><text fill="#FFFFFF" font-family="'Verdana'" font-size="12.5" lengthAdjust="spacing" textLength="117.5537" x="30.2083" y="184.3892">bmw::Result result</text><text fill="#FFFFFF" font-family="'Verdana'" font-size="12.5" lengthAdjust="spacing" textLength="7.9529" x="30.2083" y="198.94">{</text><text fill="#FFFFFF" font-family="'Verdana'" font-size="12.5" lengthAdjust="spacing" textLength="133.6487" x="38.1551" y="213.4908">storage.value = true,</text><text fill="#FFFFFF" font-family="'Verdana'" font-size="12.5" lengthAdjust="spacing" textLength="159.4727" x="38.1551" y="228.0416">discriminant = 0  // Value</text><text fill="#FFFFFF" font-family="'Verdana'" font-size="12.5" lengthAdjust="spacing" textLength="7.9529" x="30.2083" y="242.5924">}</text><line style="stroke:#009FDB;stroke-width:3.125;" x1="118.6056" x2="162.3556" y1="316.3086" y2="316.3086"/><line style="stroke:#009FDB;stroke-width:3.125;" x1="162.3556" x2="162.3556" y1="316.3086" y2="329.8503"/><line style="stroke:#009FDB;stroke-width:3.125;" x1="119.6472" x2="162.3556" y1="329.8503" y2="329.8503"/><polygon fill="#009FDB" points="130.0639,325.6836,119.6472,329.8503,130.0639,334.0169,125.8972,329.8503" style="stroke:#009FDB;stroke-width:1.0417;"/><text fill="#5A5A5A" font-family="'Verdana'" font-size="12.5" font-weight="bold" lengthAdjust="spacing" textLength="8.6975" x="134.2306" y="295.6685">2</text><text fill="#5A5A5A" font-family="'Verdana'" font-size="12.5" lengthAdjust="spacing" textLength="108.0017" x="163.7614" y="288.3931">Prepare to return</text><text fill="#5A5A5A" font-family="'Verdana'" font-size="12.5" lengthAdjust="spacing" textLength="119.8059" x="163.7614" y="302.9439">by value across FFI</text><polygon fill="#009FDB" points="315.1408,386.0352,325.5575,390.2018,315.1408,394.3685,319.3075,390.2018" style="stroke:#009FDB;stroke-width:1.0417;"/><line style="stroke:#009FDB;stroke-width:3.125;" x1="118.6056" x2="321.3908" y1="390.2018" y2="390.2018"/><text fill="#5A5A5A" font-family="'Verdana'" font-size="12.5" font-weight="bold" lengthAdjust="spacing" textLength="8.6975" x="134.2306" y="369.5618">3</text><text fill="#5A5A5A" font-family="'Verdana'" font-size="12.5" lengthAdjust="spacing" textLength="85.4187" x="163.7614" y="362.2864">Return Result</text><text fill="#5A5A5A" font-family="'Verdana'" font-size="12.5" lengthAdjust="spacing" textLength="114.9353" x="163.7614" y="376.8372">(by register/stack)</text><path d="M86.6465,414.1602 L86.6465,550.6185 A10.4167,10.4167 0 0 0 97.0632,561.0352 L349.1465,561.0352 A10.4167,10.4167 0 0 0 359.5632,550.6185 L359.5632,414.1602 L349.1465,403.7435 L97.0632,403.7435 A10.4167,10.4167 0 0 0 86.6465,414.1602" fill="url(#g8ck7poce0i8a1)" style="stroke:#0568AE;stroke-width:1.0417;"/><path d="M349.1465,403.7435 L349.1465,408.9518 A5.2083,5.2083 0 0 0 354.3549,414.1602 L359.5632,414.1602 L349.1465,403.7435" fill="url(#g8ck7poce0i8a1)" style="stroke:#0568AE;stroke-width:1.0417;"/><text fill="#FFFFFF" font-family="'Verdana'" font-size="12.5" font-weight="bold" lengthAdjust="spacing" textLength="165.7959" x="101.2299" y="428.8879">ABI Calling Convention:</text><text fill="#FFFFFF" font-family="'Verdana'" font-size="12.5" lengthAdjust="spacing" textLength="150.5188" x="101.2299" y="443.4387">Registers/stack contain:</text><text fill="#FFFFFF" font-family="'Verdana'" font-size="12.5" lengthAdjust="spacing" textLength="234.4116" x="101.2299" y="457.9895">- Offset 0: bool value (1 byte) = 0x01</text><text fill="#FFFFFF" font-family="'Verdana'" font-size="12.5" lengthAdjust="spacing" textLength="129.5959" x="101.2299" y="472.5403">- Offset 1-3: padding</text><text fill="#FFFFFF" font-family="'Verdana'" font-size="12.5" lengthAdjust="spacing" textLength="228.2288" x="101.2299" y="487.0911">- Offset 4-7: ErrorCode (4 bytes) = 0</text><text fill="#FFFFFF" font-family="'Verdana'" font-size="12.5" lengthAdjust="spacing" textLength="182.251" x="101.2299" y="501.6418">- Offset 8-15: domain pointer</text><text fill="#FFFFFF" font-family="'Verdana'" font-size="12.5" lengthAdjust="spacing" textLength="172.8333" x="101.2299" y="516.1926">- Offset 16-23: message.ptr</text><text fill="#FFFFFF" font-family="'Verdana'" font-size="12.5" lengthAdjust="spacing" textLength="173.9441" x="101.2299" y="530.7434">- Offset 24-31: message.len</text><text fill="#FFFFFF" font-family="'Verdana'" font-size="12.5" lengthAdjust="spacing" textLength="201.4282" x="101.2299" y="545.2942">- Offset 32: discriminant = 0x00</text><polygon fill="#009FDB" points="536.9731,600.293,547.3897,604.4596,536.9731,608.6263,541.1397,604.4596" style="stroke:#009FDB;stroke-width:1.0417;"/><line style="stroke:#009FDB;stroke-width:3.125;" x1="327.6408" x2="543.2231" y1="604.4596" y2="604.4596"/><text fill="#5A5A5A" font-family="'Verdana'" font-size="12.5" font-weight="bold" lengthAdjust="spacing" textLength="8.6975" x="343.2658" y="591.095">4</text><text fill="#5A5A5A" font-family="'Verdana'" font-size="12.5" lengthAdjust="spacing" textLength="150.6348" x="372.7966" y="591.095">Receive as ffi::Expected</text><path d="M435.7503,628.418 L435.7503,750.293 A10.4167,10.4167 0 0 0 446.167,760.7096 L652.417,760.7096 A10.4167,10.4167 0 0 0 662.8337,750.293 L662.8337,628.418 L652.417,618.0013 L446.167,618.0013 A10.4167,10.4167 0 0 0 435.7503,628.418" fill="url(#g8ck7poce0i8a1)" style="stroke:#0568AE;stroke-width:1.0417;"/><path d="M652.417,618.0013 L652.417,623.2096 A5.2083,5.2083 0 0 0 657.6253,628.418 L662.8337,628.418 L652.417,618.0013" fill="url(#g8ck7poce0i8a1)" style="stroke:#0568AE;stroke-width:1.0417;"/><text fill="#FFFFFF" font-family="'Verdana'" font-size="12.5" lengthAdjust="spacing" textLength="188.9038" x="450.3337" y="643.1458">Rust sees the incoming bytes:</text><text fill="#FFFFFF" font-family="'Verdana'" font-size="12.5" lengthAdjust="spacing" textLength="110.4675" x="450.3337" y="657.6965">struct Expected {</text><text fill="#FFFFFF" font-family="'Verdana'" font-size="12.5" lengthAdjust="spacing" textLength="102.4841" x="458.2804" y="672.2473">storage: union {</text><text fill="#FFFFFF" font-family="'Verdana'" font-size="12.5" lengthAdjust="spacing" textLength="122.6807" x="466.2272" y="686.7981">value: bool = 0x01,</text><text fill="#FFFFFF" font-family="'Verdana'" font-size="12.5" lengthAdjust="spacing" textLength="116.1499" x="466.2272" y="701.3489">error: Error = {...}</text><text fill="#FFFFFF" font-family="'Verdana'" font-size="12.5" lengthAdjust="spacing" textLength="11.9263" x="458.2804" y="715.8997">},</text><text fill="#FFFFFF" font-family="'Verdana'" font-size="12.5" lengthAdjust="spacing" textLength="151.1963" x="458.2804" y="730.4504">discriminant: u8 = 0x00</text><text fill="#FFFFFF" font-family="'Verdana'" font-size="12.5" lengthAdjust="spacing" textLength="7.9529" x="450.3337" y="745.0012">}</text><line style="stroke:#009FDB;stroke-width:3.125;" x1="549.4731" x2="593.2231" y1="804.1667" y2="804.1667"/><line style="stroke:#009FDB;stroke-width:3.125;" x1="593.2231" x2="593.2231" y1="804.1667" y2="817.7083"/><line style="stroke:#009FDB;stroke-width:3.125;" x1="550.5147" x2="593.2231" y1="817.7083" y2="817.7083"/><polygon fill="#009FDB" points="560.9314,813.5417,550.5147,817.7083,560.9314,821.875,556.7647,817.7083" style="stroke:#009FDB;stroke-width:1.0417;"/><text fill="#5A5A5A" font-family="'Verdana'" font-size="12.5" font-weight="bold" lengthAdjust="spacing" textLength="8.6975" x="565.0981" y="790.802">5</text><text fill="#5A5A5A" font-family="'Verdana'" font-size="12.5" lengthAdjust="spacing" textLength="139.1174" x="594.6289" y="790.802">Match on discriminant</text><path d="M386.4563,830.2083 L458.2764,830.2083 L458.2764,853.0924 L447.8597,863.5091 L376.0396,863.5091 L376.0396,840.625 A10.4167,10.4167 0 0 1 386.4563,830.2083" fill="#F2F2F2" style="stroke:#959595;stroke-width:1.0417;"/><rect fill="none" height="546.4518" rx="10.4167" ry="10.4167" style="stroke:#33B2E2;stroke-width:1.0417;" width="434.8958" x="376.0396" y="830.2083"/><text fill="#0568AE" font-family="'Verdana'" font-size="12.5" font-weight="bold" lengthAdjust="spacing" textLength="18.6951" x="399.998" y="851.1861">alt</text><text fill="#5A5A5A" font-family="'Verdana'" font-size="12.5" font-weight="bold" lengthAdjust="spacing" textLength="218.8293" x="482.2347" y="852.2278">[discriminant == 0x00 (Value)]</text><line style="stroke:#33B2E2;stroke-width:1.0417;stroke-dasharray:2.0833,2.0833;" x1="376.0396" x2="810.9355" y1="1226.7578" y2="1226.7578"/><text fill="#5A5A5A" font-family="'Verdana'" font-size="12.5" font-weight="bold" lengthAdjust="spacing" textLength="214.679" x="389.5813" y="1248.7773">[discriminant == 0x01 (Error)]</text><line style="stroke:#009FDB;stroke-width:3.125;" x1="549.4731" x2="593.2231" y1="926.9857" y2="926.9857"/><line style="stroke:#009FDB;stroke-width:3.125;" x1="593.2231" x2="593.2231" y1="926.9857" y2="940.5273"/><line style="stroke:#009FDB;stroke-width:3.125;" x1="550.5147" x2="593.2231" y1="940.5273" y2="940.5273"/><polygon fill="#009FDB" points="560.9314,936.3607,550.5147,940.5273,560.9314,944.694,556.7647,940.5273" style="stroke:#009FDB;stroke-width:1.0417;"/><text fill="#5A5A5A" font-family="'Verdana'" font-size="12.5" font-weight="bold" lengthAdjust="spacing" textLength="8.6975" x="565.0981" y="913.621">6</text><text fill="#5A5A5A" font-family="'Verdana'" font-size="12.5" lengthAdjust="spacing" textLength="113.562" x="594.6289" y="913.621">Extract bool value</text><path d="M397.9146,964.4857 L397.9146,1028.0273 A10.4167,10.4167 0 0 0 408.3313,1038.444 L689.5813,1038.444 A10.4167,10.4167 0 0 0 699.998,1028.0273 L699.998,964.4857 L689.5813,954.069 L408.3313,954.069 A10.4167,10.4167 0 0 0 397.9146,964.4857" fill="url(#g8ck7poce0i8a1)" style="stroke:#0568AE;stroke-width:1.0417;"/><path d="M689.5813,954.069 L689.5813,959.2773 A5.2083,5.2083 0 0 0 694.7896,964.4857 L699.998,964.4857 L689.5813,954.069" fill="url(#g8ck7poce0i8a1)" style="stroke:#0568AE;stroke-width:1.0417;"/><text fill="#FFFFFF" font-family="'Verdana'" font-size="12.5" lengthAdjust="spacing" textLength="54.0344" x="412.498" y="979.2135">unsafe {</text><text fill="#FFFFFF" font-family="'Verdana'" font-size="12.5" lengthAdjust="spacing" textLength="256.6284" x="420.4447" y="993.7642">ManuallyDrop::take(&amp;mut storage.value)</text><text fill="#FFFFFF" font-family="'Verdana'" font-size="12.5" lengthAdjust="spacing" textLength="7.9529" x="412.498" y="1008.315">}</text><text fill="#FFFFFF" font-family="'Verdana'" font-size="12.5" lengthAdjust="spacing" textLength="93.0176" x="412.498" y="1022.8658">Retrieves: true</text><line style="stroke:#009FDB;stroke-width:3.125;" x1="549.4731" x2="593.2231" y1="1082.0313" y2="1082.0313"/><line style="stroke:#009FDB;stroke-width:3.125;" x1="593.2231" x2="593.2231" y1="1082.0313" y2="1095.5729"/><line style="stroke:#009FDB;stroke-width:3.125;" x1="550.5147" x2="593.2231" y1="1095.5729" y2="1095.5729"/><polygon fill="#009FDB" points="560.9314,1091.4063,550.5147,1095.5729,560.9314,1099.7396,556.7647,1095.5729" style="stroke:#009FDB;stroke-width:1.0417;"/><text fill="#5A5A5A" font-family="'Verdana'" font-size="12.5" font-weight="bold" lengthAdjust="spacing" textLength="8.6975" x="565.0981" y="1068.6666">7</text><text fill="#5A5A5A" font-family="'Verdana'" font-size="12.5" lengthAdjust="spacing" textLength="184.0149" x="594.6289" y="1068.6666">Mark discriminant = 2 (Stale)</text><line style="stroke:#009FDB;stroke-width:3.125;" x1="549.4731" x2="593.2231" y1="1141.3737" y2="1141.3737"/><line style="stroke:#009FDB;stroke-width:3.125;" x1="593.2231" x2="593.2231" y1="1141.3737" y2="1154.9154"/><line style="stroke:#009FDB;stroke-width:3.125;" x1="550.5147" x2="593.2231" y1="1154.9154" y2="1154.9154"/><polygon fill="#009FDB" points="560.9314,1150.7487,550.5147,1154.9154,560.9314,1159.082,556.7647,1154.9154" style="stroke:#009FDB;stroke-width:1.0417;"/><text fill="#5A5A5A" font-family="'Verdana'" font-size="12.5" font-weight="bold" lengthAdjust="spacing" textLength="8.6975" x="565.0981" y="1128.009">8</text><text fill="#5A5A5A" font-family="'Verdana'" font-size="12.5" lengthAdjust="spacing" textLength="117.0044" x="594.6289" y="1128.009">Construct Ok(true)</text><path d="M439.2415,1178.8737 L439.2415,1198.6654 A10.4167,10.4167 0 0 0 449.6582,1209.082 L648.6165,1209.082 A10.4167,10.4167 0 0 0 659.0332,1198.6654 L659.0332,1178.8737 L648.6165,1168.457 L449.6582,1168.457 A10.4167,10.4167 0 0 0 439.2415,1178.8737" fill="url(#g8ck7poce0i8a1)" style="stroke:#0568AE;stroke-width:1.0417;"/><path d="M648.6165,1168.457 L648.6165,1173.6654 A5.2083,5.2083 0 0 0 653.8249,1178.8737 L659.0332,1178.8737 L648.6165,1168.457" fill="url(#g8ck7poce0i8a1)" style="stroke:#0568AE;stroke-width:1.0417;"/><text fill="#FFFFFF" font-family="'Verdana'" font-size="12.5" lengthAdjust="spacing" textLength="181.9214" x="453.8249" y="1193.6015">std::result::Result = Ok(true)</text><line style="stroke:#009FDB;stroke-width:3.125;" x1="549.4731" x2="593.2231" y1="1302.7344" y2="1302.7344"/><line style="stroke:#009FDB;stroke-width:3.125;" x1="593.2231" x2="593.2231" y1="1302.7344" y2="1316.276"/><line style="stroke:#009FDB;stroke-width:3.125;" x1="550.5147" x2="593.2231" y1="1316.276" y2="1316.276"/><polygon fill="#009FDB" points="560.9314,1312.1094,550.5147,1316.276,560.9314,1320.4427,556.7647,1316.276" style="stroke:#009FDB;stroke-width:1.0417;"/><text fill="#5A5A5A" font-family="'Verdana'" font-size="12.5" font-weight="bold" lengthAdjust="spacing" textLength="8.6975" x="565.0981" y="1289.3697">9</text><text fill="#5A5A5A" font-family="'Verdana'" font-size="12.5" lengthAdjust="spacing" textLength="79.7058" x="594.6289" y="1289.3697">Extract Error</text><path d="M447.8719,1340.2344 L447.8719,1360.026 A10.4167,10.4167 0 0 0 458.2886,1370.4427 L640.5802,1370.4427 A10.4167,10.4167 0 0 0 650.9969,1360.026 L650.9969,1340.2344 L640.5802,1329.8177 L458.2886,1329.8177 A10.4167,10.4167 0 0 0 447.8719,1340.2344" fill="url(#g8ck7poce0i8a1)" style="stroke:#0568AE;stroke-width:1.0417;"/><path d="M640.5802,1329.8177 L640.5802,1335.026 A5.2083,5.2083 0 0 0 645.7886,1340.2344 L650.9969,1340.2344 L640.5802,1329.8177" fill="url(#g8ck7poce0i8a1)" style="stroke:#0568AE;stroke-width:1.0417;"/><text fill="#FFFFFF" font-family="'Verdana'" font-size="12.5" lengthAdjust="spacing" textLength="164.6606" x="462.4552" y="1354.9622">Would construct Err(error)</text><path d="M402.2156,1395.4102 L478.8513,1395.4102 L478.8513,1418.2943 L468.4347,1428.7109 L391.7989,1428.7109 L391.7989,1405.8268 A10.4167,10.4167 0 0 1 402.2156,1395.4102" fill="#F2F2F2" style="stroke:#959595;stroke-width:1.0417;"/><rect fill="none" height="287.1094" rx="10.4167" ry="10.4167" style="stroke:#33B2E2;stroke-width:1.0417;" width="408.3516" x="391.7989" y="1395.4102"/><text fill="#0568AE" font-family="'Verdana'" font-size="12.5" font-weight="bold" lengthAdjust="spacing" textLength="23.5107" x="415.7572" y="1416.3879">opt</text><text fill="#5A5A5A" font-family="'Verdana'" font-size="12.5" font-weight="bold" lengthAdjust="spacing" textLength="211.2549" x="502.8097" y="1417.4296">[discriminant != 2 (not stale)]</text><path d="M413.6739,1470.3451 L413.6739,1606.8034 A10.4167,10.4167 0 0 0 424.0906,1617.2201 L674.0906,1617.2201 A10.4167,10.4167 0 0 0 684.5072,1606.8034 L684.5072,1470.3451 L674.0906,1459.9284 L424.0906,1459.9284 A10.4167,10.4167 0 0 0 413.6739,1470.3451" fill="url(#g8ck7poce0i8a1)" style="stroke:#0568AE;stroke-width:1.0417;"/><path d="M674.0906,1459.9284 L674.0906,1465.1367 A5.2083,5.2083 0 0 0 679.2989,1470.3451 L684.5072,1470.3451 L674.0906,1459.9284" fill="url(#g8ck7poce0i8a1)" style="stroke:#0568AE;stroke-width:1.0417;"/><text fill="#FFFFFF" font-family="'Verdana'" font-size="12.5" lengthAdjust="spacing" textLength="157.4585" x="428.2572" y="1485.0728">Clean up original storage</text><text fill="#FFFFFF" font-family="'Verdana'" font-size="12.5" lengthAdjust="spacing" textLength="91.156" x="428.2572" y="1499.6236">to avoid leaks.</text><text fill="#FFFFFF" font-family="'Verdana'" font-size="12.5" lengthAdjust="spacing" textLength="184.4788" x="428.2572" y="1514.1744">The union may contain either</text><text fill="#FFFFFF" font-family="'Verdana'" font-size="12.5" lengthAdjust="spacing" textLength="164.6912" x="428.2572" y="1528.7252">a Value or an Error. In any</text><text fill="#FFFFFF" font-family="'Verdana'" font-size="12.5" lengthAdjust="spacing" textLength="195.3613" x="428.2572" y="1543.276">case, we must drop it properly.</text><text fill="#FFFFFF" font-family="'Verdana'" font-size="12.5" lengthAdjust="spacing" textLength="187.8296" x="428.2572" y="1557.8267">If the discriminant is stale (2),</text><text fill="#FFFFFF" font-family="'Verdana'" font-size="12.5" lengthAdjust="spacing" textLength="217.5415" x="428.2572" y="1572.3775">we don't have to do it because the</text><text fill="#FFFFFF" font-family="'Verdana'" font-size="12.5" lengthAdjust="spacing" textLength="233.0566" x="428.2572" y="1586.9283">Rust object took ownership, and thus</text><text fill="#FFFFFF" font-family="'Verdana'" font-size="12.5" lengthAdjust="spacing" textLength="127.2217" x="428.2572" y="1601.4791">will clean it up later.</text><line style="stroke:#009FDB;stroke-width:3.125;" x1="549.4731" x2="593.2231" y1="1660.6445" y2="1660.6445"/><line style="stroke:#009FDB;stroke-width:3.125;" x1="593.2231" x2="593.2231" y1="1660.6445" y2="1674.1862"/><line style="stroke:#009FDB;stroke-width:3.125;" x1="550.5147" x2="593.2231" y1="1674.1862" y2="1674.1862"/><polygon fill="#009FDB" points="560.9314,1670.0195,550.5147,1674.1862,560.9314,1678.3529,556.7647,1674.1862" style="stroke:#009FDB;stroke-width:1.0417;"/><text fill="#5A5A5A" font-family="'Verdana'" font-size="12.5" font-weight="bold" lengthAdjust="spacing" textLength="17.395" x="565.0981" y="1647.2799">10</text><text fill="#5A5A5A" font-family="'Verdana'" font-size="12.5" lengthAdjust="spacing" textLength="164.5325" x="603.3264" y="1647.2799">Value::Drop or Error::Drop</text><line style="stroke:#009FDB;stroke-width:3.125;" x1="549.4731" x2="593.2231" y1="1734.5703" y2="1734.5703"/><line style="stroke:#009FDB;stroke-width:3.125;" x1="593.2231" x2="593.2231" y1="1734.5703" y2="1748.112"/><line style="stroke:#009FDB;stroke-width:3.125;" x1="550.5147" x2="593.2231" y1="1748.112" y2="1748.112"/><polygon fill="#009FDB" points="560.9314,1743.9453,550.5147,1748.112,560.9314,1752.2786,556.7647,1748.112" style="stroke:#009FDB;stroke-width:1.0417;"/><text fill="#5A5A5A" font-family="'Verdana'" font-size="12.5" font-weight="bold" lengthAdjust="spacing" textLength="17.395" x="565.0981" y="1721.2056">11</text><text fill="#5A5A5A" font-family="'Verdana'" font-size="12.5" lengthAdjust="spacing" textLength="161.5356" x="603.3264" y="1721.2056">Call match on Rust Result</text><path d="M411.7696,1772.0703 L411.7696,1893.9453 A10.4167,10.4167 0 0 0 422.1863,1904.362 L676.3529,1904.362 A10.4167,10.4167 0 0 0 686.7696,1893.9453 L686.7696,1772.0703 L676.3529,1761.6536 L422.1863,1761.6536 A10.4167,10.4167 0 0 0 411.7696,1772.0703" fill="url(#g8ck7poce0i8a1)" style="stroke:#0568AE;stroke-width:1.0417;"/><path d="M676.3529,1761.6536 L676.3529,1766.862 A5.2083,5.2083 0 0 0 681.5613,1772.0703 L686.7696,1772.0703 L676.3529,1761.6536" fill="url(#g8ck7poce0i8a1)" style="stroke:#0568AE;stroke-width:1.0417;"/><text fill="#FFFFFF" font-family="'Verdana'" font-size="12.5" lengthAdjust="spacing" textLength="121.7957" x="426.3529" y="1786.7981">match rust_result {</text><text fill="#FFFFFF" font-family="'Verdana'" font-size="12.5" lengthAdjust="spacing" textLength="115.1611" x="442.2465" y="1801.3489">Ok(bool_val) =&gt; {</text><text fill="#FFFFFF" font-family="'Verdana'" font-size="12.5" lengthAdjust="spacing" textLength="205.0781" x="458.1401" y="1815.8997">println!("Success: {}", bool_val);</text><text fill="#FFFFFF" font-family="'Verdana'" font-size="12.5" lengthAdjust="spacing" textLength="11.9263" x="442.2465" y="1830.4504">},</text><text fill="#FFFFFF" font-family="'Verdana'" font-size="12.5" lengthAdjust="spacing" textLength="82.7454" x="442.2465" y="1845.0012">Err(err) =&gt; {</text><text fill="#FFFFFF" font-family="'Verdana'" font-size="12.5" lengthAdjust="spacing" textLength="166.3574" x="458.1401" y="1859.552">eprintln!("Failed: {}", err);</text><text fill="#FFFFFF" font-family="'Verdana'" font-size="12.5" lengthAdjust="spacing" textLength="7.9529" x="442.2465" y="1874.1028">}</text><text fill="#FFFFFF" font-family="'Verdana'" font-size="12.5" lengthAdjust="spacing" textLength="7.9529" x="426.3529" y="1888.6536">}</text><line style="stroke:#009FDB;stroke-width:3.125;" x1="549.4731" x2="593.2231" y1="1947.819" y2="1947.819"/><line style="stroke:#009FDB;stroke-width:3.125;" x1="593.2231" x2="593.2231" y1="1947.819" y2="1961.3607"/><line style="stroke:#009FDB;stroke-width:3.125;" x1="550.5147" x2="593.2231" y1="1961.3607" y2="1961.3607"/><polygon fill="#009FDB" points="560.9314,1957.194,550.5147,1961.3607,560.9314,1965.5273,556.7647,1961.3607" style="stroke:#009FDB;stroke-width:1.0417;"/><text fill="#5A5A5A" font-family="'Verdana'" font-size="12.5" font-weight="bold" lengthAdjust="spacing" textLength="17.395" x="565.0981" y="1934.4543">12</text><text fill="#5A5A5A" font-family="'Verdana'" font-size="12.5" lengthAdjust="spacing" textLength="133.1726" x="603.3264" y="1934.4543">Process success path</text><path d="M441.1336,1985.319 L441.1336,2019.694 A10.4167,10.4167 0 0 0 451.5503,2030.1107 L647.3836,2030.1107 A10.4167,10.4167 0 0 0 657.8003,2019.694 L657.8003,1985.319 L647.3836,1974.9023 L451.5503,1974.9023 A10.4167,10.4167 0 0 0 441.1336,1985.319" fill="url(#g8ck7poce0i8a1)" style="stroke:#0568AE;stroke-width:1.0417;"/><path d="M647.3836,1974.9023 L647.3836,1980.1107 A5.2083,5.2083 0 0 0 652.592,1985.319 L657.8003,1985.319 L647.3836,1974.9023" fill="url(#g8ck7poce0i8a1)" style="stroke:#0568AE;stroke-width:1.0417;"/><text fill="#FFFFFF" font-family="'Verdana'" font-size="12.5" lengthAdjust="spacing" textLength="178.1372" x="455.717" y="2000.0468">Application logic for Ok case</text><text fill="#FFFFFF" font-family="'Verdana'" font-size="12.5" lengthAdjust="spacing" textLength="129.3945" x="455.717" y="2014.5976">Uses bool_val = true</text><!--SRC=[XLNVRzis47xNNt79moQdjXCxsLQmI84sIu0y52cI_NW9KD3KsUPCaG99EN43_-yxKfGjnSrcmB2bk_juzzrtnoE_n19XfcfSMBx9ZYhB5oK7Z-OxU5jZbbNSUYbanRM7uwjtx-3A57WCt86eghxrvkOMFfjQ5znkeiTyBliUzxNpUm1BJrd6QszqNSxGPXb1mkXZG6RmO4gygRNmqkXy01PzRRLxrFVeQkKpRJo2MQEDUG0e8xY2DRUIpnI2iCWz5emii_A9iIQAK68mm0jz0PmtL32ErvmOWCjOyZ1Q2kc4bQNK8UzBE0CuFOM_WXkPjndg0a86_PI_MgHo4Rn9wJxgsGOQS2wiSGw8erqCqSFWFZf2az-ZpYd0ua8wZ_RKUIvMWqwf535CzPwSVFfy2rTSAQaNnAbUemvKiPCJijud2DTWW33QSwa37IEucyyTUZXZC3D6fVpo2Sms7WUXsEUpITTnCZfdKF6Ye9Ewxoz6lp6ujjROq5B8BoA2Yn1Tl_UZoIyC2bDI1b0PgIcn7lwleocTKA9peHcLxrcd5wFpoTwgK7UjvrDsqAldixDEWuYpG7OGMs1Re5nZ4YTZryyL2j99X-EeIc8mIDKXEg0P0Qc5AGFHiS90eoEj20yjG5zG36fDlKWleQ4uqTtmEqmM3FGb5idqCXwFjz6qFTGXeRvlw-kBCEIyB_8Bzs89T7mtEECa_pvJ3HJaKTQ3U5mVwFhPMqv5xcKIdGwu2fzQEpx7NSL0MUYQrBdvtPgACSzNcFzKrhu_SuFalas_D0rMufeeRjPFf6XNvc66NxXTlUx_5F87pnLX_o201YLrxcwLXoC6RvVaVC5Oip5s2-Io7xVF3PN37_4xWJmszx_uZGvlv_6tgLKHHhZLdBKvxZ5tET2VB3FLgpOVHKR8WUg9hBnvpfL2hg6km5Yve63LzYhPQQtnjP45aD_AZTFRFsWy6hMNVDCk6a19OsEJ2sys9-427H2h7SEjfeTDyX3SuH2U4Cf0K46I0UcXeb-qQjCUTJkFmzWhJxgcBiYdWtQe2ASm-cSFIxwEsxWm0Mw6WjVK9S9evHPECxD_Q8J9pQp0F6bQcajP3IcvWZnhrs9AfK14XWYAI59qlzZn_oeqLivOc89GVoo-UMpwzKgUD374OvhVcDx1VPSwrdY5Xs-DHdUpHmeD4_kD9ensySVEJ09HIkjNwQFy-A4MWdOgWvVjyH1s0H_QYMp9J6exGC8zr0sNYkxQ1YduVkYCzTjxwgir8GDmJIPqnVZbOPsVgaf9mSFTHfVyGWgO4uztgwWPil_fQ4UtwQSxV7_alm00]--></g></svg>